<?xml version="1.0" encoding="UTF-8"?>
<!-- Generated by Pixelmator Pro 3.8 -->
<svg width="512" height="512" viewBox="0 0 512 512" xmlns="http://www.w3.org/2000/svg">
    <path id="Path" fill="#000000" stroke="#2a6fdb" stroke-width="42.666668" stroke-linecap="round" d="M 256 255 L 256 153.666656"/>
    <path id="path1" fill="#000000" stroke="#2a6fdb" stroke-width="42.666668" stroke-linecap="round" d="M 256 256 L 352.373322 224.688019"/>
    <path id="path2" fill="#000000" stroke="#2a6fdb" stroke-width="42.666668" stroke-linecap="round" d="M 256 256 L 315.562653 337.978638"/>
    <path id="path3" fill="#000000" stroke="#2a6fdb" stroke-width="42.666668" stroke-linecap="round" d="M 256 256 L 196.437332 337.978638"/>
    <path id="path4" fill="#000000" stroke="#2a6fdb" stroke-width="42.666668" stroke-linecap="round" d="M 256 256 L 159.626663 224.688019"/>
    <path id="path5" fill="#2a6fdb" stroke="none" d="M 330.666656 256 C 330.666656 297.237244 297.237274 330.666687 256 330.666687 C 214.762741 330.666687 181.333328 297.237244 181.333328 256 C 181.333328 214.762726 214.762741 181.333344 256 181.333344 C 297.237274 181.333344 330.666656 214.762726 330.666656 256 Z"/>
    <path id="path6" fill="#2a6fdb" stroke="none" d="M 298.666656 85.333344 C 298.666656 108.897491 279.564148 128 256 128 C 232.435852 128 213.333328 108.897491 213.333328 85.333344 C 213.333328 61.769196 232.435852 42.666656 256 42.666656 C 279.564148 42.666656 298.666656 61.769196 298.666656 85.333344 Z"/>
    <path id="path7" fill="#2a6fdb" stroke="none" d="M 460.981323 203.258667 C 460.981323 226.822815 441.878815 245.925323 418.314667 245.925323 C 394.750519 245.925323 375.64798 226.822815 375.64798 203.258667 C 375.64798 179.694519 394.750519 160.59201 418.314667 160.59201 C 441.878815 160.59201 460.981323 179.694519 460.981323 203.258667 Z"/>
    <path id="path8" fill="#2a6fdb" stroke="none" d="M 398.981323 394.074677 C 398.981323 417.638824 379.878815 436.741333 356.314667 436.741333 C 332.750519 436.741333 313.64798 417.638824 313.64798 394.074677 C 313.64798 370.510498 332.750519 351.40802 356.314667 351.40802 C 379.878815 351.40802 398.981323 370.510498 398.981323 394.074677 Z"/>
    <path id="path9" fill="#2a6fdb" stroke="none" d="M 198.352005 394.074677 C 198.352005 417.638824 179.249496 436.741333 155.685333 436.741333 C 132.121185 436.741333 113.018669 417.638824 113.018669 394.074677 C 113.018669 370.510498 132.121185 351.40802 155.685333 351.40802 C 179.249496 351.40802 198.352005 370.510498 198.352005 394.074677 Z"/>
    <path id="path10" fill="#2a6fdb" stroke="none" d="M 136.352005 203.258667 C 136.352005 226.822815 117.249481 245.925323 93.685333 245.925323 C 70.121185 245.925323 51.018665 226.822815 51.018665 203.258667 C 51.018665 179.694519 70.121185 160.59201 93.685333 160.59201 C 117.249481 160.59201 136.352005 179.694519 136.352005 203.258667 Z"/>
</svg>
